# xmcd CD database file
#
# Track frame offsets:
#	150
#	14536
#	28146
#	40059
#	54431
#	69395
#	79716
#	90428
#	121945
#
# Disc length: 1763 seconds
#
# Revision: 0
# Processed by: cddbd v1.4PL0 Copyright (c) Steve Scherf et al.
# Submitted via: CDex 1.40Release
#
DISCID=6706e109
DTITLE=Danny Hooper - The Stockyard Collection
DYEAR=1999
DGENRE=Country
TTITLE0=Swinging Doors/Tonight the Bottle Let Me Down
TTITLE1=It's Four in the Morning
TTITLE2=The Auctioneer
TTITLE3=Til I Can Make it on My Own
TTITLE4=Wolverton Mountain
TTITLE5=Walk on By
TTITLE6=On the Wings of a Dove
TTITLE7=Someday Soon/Summer Wages/Four Strong Winds/Navajo Rug
TTITLE8=Burning Memories
EXTD=YEAR: 1999 ID3G: 2
EXTT0=
EXTT1=
EXTT2=
EXTT3=
EXTT4=
EXTT5=
EXTT6=
EXTT7=
EXTT8=
PLAYORDER=
